<?xml version="1.0" encoding="UTF-8"?>
<svg width="187px" height="31px" viewBox="0 0 187 31" version="1.1" xmlns="http://www.w3.org/2000/svg" xmlns:xlink="http://www.w3.org/1999/xlink">
    <!-- Generator: Sketch 62 (91390) - https://sketch.com -->
    <title>Logo@1,5x</title>
    <desc>Created with Sketch.</desc>
    <g id="Logo" stroke="none" stroke-width="1" fill="none" fill-rule="evenodd">
        <g id="Group" fill-rule="nonzero">
            <path d="M13.6923077,4.73333333 C12.9487179,4.11041667 12.0512821,3.65 11.025641,3.40625 C9.97435897,3.13541667 8.82051282,3 7.51282051,3 L3.28205128,3 C2.15384615,3 1.33333333,3.24375 0.794871795,3.75833333 C0.256410256,4.27291667 0,4.97708333 0,5.89791667 L0,29 L4.79487179,29 L4.79487179,20.8208333 C4.79487179,20.4145833 4.8974359,20.1166667 5.1025641,19.9 C5.30769231,19.6833333 5.74358974,19.6020833 6.38461538,19.6020833 L7.07692308,19.6020833 C8.30769231,19.6020833 9.46153846,19.49375 10.5384615,19.25 C11.6153846,19.0333333 12.5641026,18.6 13.3846154,17.9770833 C14.2051282,17.3541667 14.8461538,16.4875 15.3076923,15.3770833 C15.7692308,14.2666667 16,12.83125 16,11.0708333 C16,9.52708333 15.7948718,8.22708333 15.4102564,7.19791667 C15.025641,6.16875 14.4615385,5.35625 13.6923077,4.73333333 Z M10.974359,13.5625 C10.7692308,14.1854167 10.4358974,14.6729167 10.025641,15.025 C9.61538462,15.3770833 9.12820513,15.6208333 8.53846154,15.75625 C7.94871795,15.8916667 7.28205128,15.9458333 6.53846154,15.9458333 C6.17948718,15.9458333 5.87179487,15.91875 5.66666667,15.8916667 C5.43589744,15.8645833 5.25641026,15.7833333 5.12820513,15.675 C5,15.5666667 4.92307692,15.3770833 4.87179487,15.1604167 C4.84615385,14.94375 4.82051282,14.61875 4.82051282,14.2125 L4.82051282,8.41666667 C4.82051282,8.01041667 4.84615385,7.68541667 4.92307692,7.44166667 C4.97435897,7.19791667 5.1025641,7.03541667 5.28205128,6.9 C5.46153846,6.79166667 5.71794872,6.71041667 6.05128205,6.68333333 C6.38461538,6.65625 6.82051282,6.65625 7.35897436,6.65625 C8.58974359,6.65625 9.56410256,6.95416667 10.2564103,7.57708333 C10.9487179,8.2 11.2820513,9.39166667 11.2820513,11.1520833 C11.2820513,12.1270833 11.1794872,12.9395833 10.974359,13.5625 Z" id="Shape" fill="#072A3B"></path>
            <path d="M37.5433912,5.01219512 C35.8878505,3.00406504 33.4312417,2 30.1468625,2 C28.4646195,2 26.9959947,2.23780488 25.740988,2.7398374 C24.4859813,3.24186992 23.4178905,4.03455285 22.5634179,5.09146341 C21.7089453,6.17479675 21.0680908,7.57520325 20.6408545,9.26626016 C20.2136182,10.9837398 20,13.0447154 20,15.4756098 C20,17.9065041 20.2670227,19.9146341 20.8010681,21.5264228 C21.3351135,23.1382114 22.0293725,24.4065041 22.9372497,25.3841463 C23.8451268,26.3353659 24.9132176,27.0223577 26.141522,27.4186992 C27.3698264,27.8150407 28.7049399,28 30.1201602,28 C31.5620828,28 32.8971963,27.7886179 34.0987984,27.3922764 C35.3004005,26.995935 36.3417891,26.2560976 37.222964,25.2256098 C38.1041389,24.195122 38.7716956,22.7682927 39.2790387,20.9979675 C39.7596796,19.2276423 40,16.9817073 40,14.2601626 C40,10.0853659 39.1722296,7.0203252 37.5433912,5.01219512 Z M34.6061415,19.5447154 C34.4726302,20.7337398 34.2323097,21.6321138 33.8851802,22.2662602 C33.5380507,22.9004065 33.0574099,23.3231707 32.4432577,23.5345528 C31.8291055,23.745935 31.0547397,23.851626 30.1468625,23.851626 C29.2389853,23.851626 28.4913218,23.745935 27.8771696,23.5081301 C27.2630174,23.296748 26.7823765,22.847561 26.3818425,22.2134146 C26.0080107,21.5792683 25.740988,20.6544715 25.5540721,19.4918699 C25.3671562,18.3028455 25.2870494,16.7703252 25.2870494,14.8678862 C25.2870494,13.0711382 25.3404539,11.5914634 25.4739653,10.4552846 C25.6074766,9.31910569 25.8477971,8.42073171 26.1949266,7.78658537 C26.5420561,7.15243902 27.0226969,6.70325203 27.6635514,6.46544715 C28.2777036,6.22764228 29.105474,6.12195122 30.1468625,6.12195122 C31.0280374,6.12195122 31.7489987,6.22764228 32.3631509,6.46544715 C32.9506008,6.67682927 33.4579439,7.12601626 33.8050734,7.7601626 C34.1522029,8.39430894 34.4192256,9.26626016 34.6061415,10.4288618 C34.7663551,11.5650407 34.8464619,13.0711382 34.8464619,14.9207317 C34.8197597,16.796748 34.7396529,18.3821138 34.6061415,19.5447154 Z" id="Shape" fill="#072A3B"></path>
            <path d="M59.7179487,4.73333333 C58.974359,4.11041667 58.0769231,3.67708333 57.025641,3.40625 C55.974359,3.13541667 54.8205128,3 53.5128205,3 L49.2820513,3 C48.1538462,3 47.3333333,3.24375 46.7948718,3.75833333 C46.2564103,4.27291667 46,4.97708333 46,5.89791667 L46,29 L50.7948718,29 L50.7948718,20.8208333 C50.7948718,20.4145833 50.8974359,20.1166667 51.1025641,19.9 C51.3076923,19.6833333 51.7435897,19.6020833 52.3846154,19.6020833 L53.0769231,19.6020833 C54.3076923,19.6020833 55.4615385,19.49375 56.5384615,19.25 C57.6153846,19.0333333 58.5641026,18.6 59.3846154,17.9770833 C60.2051282,17.3541667 60.8461538,16.4875 61.3076923,15.3770833 C61.7692308,14.2666667 62,12.83125 62,11.0708333 C62,9.52708333 61.7948718,8.22708333 61.4102564,7.19791667 C61.025641,6.16875 60.4615385,5.35625 59.7179487,4.73333333 Z M56.974359,13.5625 C56.7692308,14.1854167 56.4358974,14.6729167 56.025641,15.025 C55.6153846,15.3770833 55.1282051,15.6208333 54.5384615,15.75625 C53.9487179,15.8916667 53.2820513,15.9458333 52.5384615,15.9458333 C52.1794872,15.9458333 51.8717949,15.91875 51.6666667,15.8916667 C51.4358974,15.8645833 51.2564103,15.7833333 51.1282051,15.675 C51,15.5666667 50.9230769,15.3770833 50.8717949,15.1604167 C50.8461538,14.94375 50.8205128,14.61875 50.8205128,14.2125 L50.8205128,8.41666667 C50.8205128,8.01041667 50.8461538,7.68541667 50.9230769,7.44166667 C50.974359,7.19791667 51.1025641,7.03541667 51.2820513,6.9 C51.4615385,6.79166667 51.7179487,6.71041667 52.0512821,6.68333333 C52.3846154,6.65625 52.8205128,6.65625 53.3589744,6.65625 C54.5897436,6.65625 55.5641026,6.95416667 56.2564103,7.57708333 C56.9487179,8.2 57.3076923,9.39166667 57.3076923,11.1520833 C57.2820513,12.1270833 57.1794872,12.9395833 56.974359,13.5625 Z" id="Shape" fill="#072A3B"></path>
            <path d="M71,3.45492228 C71,2.83523316 70.7326203,2.45803109 70.2245989,2.26943005 C69.7165775,2.08082902 69.1283422,2 68.513369,2 C68.2459893,2 67.9518717,2.02694301 67.657754,2.05388601 C67.3636364,2.08082902 67.0695187,2.16165803 66.828877,2.26943005 C66.5882353,2.37720207 66.3743316,2.5119171 66.2139037,2.70051813 C66.0534759,2.88911917 66,3.13160622 66,3.42797927 L66,28 L71,28 L71,3.45492228 Z" id="Path" fill="#072A3B"></path>
            <path d="M85.3983153,3 L88.6016847,3 C89.5282792,3 90.3489771,3.60911017 90.6137184,4.48305085 L98,28 L92.7845969,28 L91.354994,23.2595339 C91.2755716,22.9682203 90.9843562,22.7563559 90.6931408,22.7563559 L83.2009627,22.7563559 C82.8832732,22.7563559 82.6185319,22.9682203 82.5391095,23.2595339 L81.1359807,28 L76,28 L83.3862816,4.48305085 C83.6510229,3.60911017 84.4717208,3 85.3983153,3 Z M89.7930205,17.4067797 L87.1720818,8.03177966 C87.1191336,7.81991525 86.8279182,7.81991525 86.7749699,8.03177966 L84.1540313,17.4067797 C84.0216606,17.8569915 84.3658243,18.2807203 84.8158845,18.2807203 L89.1311673,18.2807203 C89.5812274,18.2807203 89.898917,17.8569915 89.7930205,17.4067797 Z" id="Shape" fill="#072A3B"></path>
            <path d="M130.941509,11.011575 C128.962837,6.39002013 125.433313,2.5164626 121.048147,0.0854713227 C120.700543,-0.101528006 120.272722,0.032042943 120.08555,0.352613221 C119.898378,0.699897689 120.032072,1.12732473 120.352938,1.31432406 C124.470716,3.61174438 127.786329,7.24487421 129.631307,11.572573 C129.711523,11.7595723 129.845217,11.8931432 130.032389,11.9465716 C130.112606,11.9732858 130.219561,12 130.299777,12 C130.406733,12 130.486949,11.9732858 130.593904,11.9465716 C130.91477,11.7862865 131.101942,11.3588594 130.941509,11.011575 Z" id="Path" fill="#072A3B"></path>
            <path d="M123.348669,6.69691698 C121.580954,4.91532029 119.51862,3.51163805 117.215234,2.53985803 C114.536878,1.40611468 111.644254,0.866236899 108.671279,1.02820023 C108.269525,1.05519412 107.974906,1.3791208 108.00169,1.78402913 C108.028473,2.18893747 108.349876,2.48587026 108.751629,2.45887637 L108.751629,2.45887637 C119.036516,1.91899858 127.580471,10.2061226 127.580471,20.4368066 C127.580471,21.3545989 127.500121,22.2723911 127.366203,23.1901833 C127.312636,23.5950917 127.580471,23.9460122 127.955441,24 C127.982225,24 128.035792,24 128.062575,24 C128.223277,24 128.357195,23.9460122 128.491112,23.8650306 C128.651814,23.757055 128.758948,23.5950917 128.785732,23.4061344 C128.946433,22.4343544 129,21.4355805 129,20.4368066 C129,17.8183994 128.491112,15.2539799 127.473337,12.8515237 C126.509129,10.5570431 125.116384,8.47851367 123.348669,6.69691698 Z" id="Path" fill="#072A3B"></path>
            <path d="M109.630516,4 C107.08661,4 104.653309,4.52344602 102.413565,5.59651036 C102.0541,5.77971647 101.888193,6.19847328 102.081751,6.5387132 C102.275309,6.87895311 102.717728,7.03598691 103.077193,6.85278081 C105.123378,5.88440567 107.335471,5.41330425 109.658168,5.41330425 C117.842909,5.41330425 124.506838,11.7208288 124.506838,19.4678299 C124.506838,22.1112323 123.732605,24.7022901 122.239443,26.9269357 C122.128838,27.0839695 122.101187,27.2671756 122.156489,27.4503817 C122.211792,27.6335878 122.322396,27.7906216 122.488303,27.8953108 C122.598908,27.9738277 122.737164,28 122.87542,28 C123.12428,28 123.37314,27.8953108 123.511396,27.6597601 C125.142814,25.1995638 126,22.3729553 126,19.4678299 C126,15.3326063 124.31328,11.4591058 121.21635,8.52780807 C118.119421,5.59651036 113.971748,4 109.630516,4 Z" id="Path" fill="#072A3B"></path>
            <path d="M118.411604,11.6358314 C116.099083,9.29274005 113.01572,8 109.746293,8 C105.998413,8 102.51634,9.69672131 100.150657,12.6861827 C99.9114308,13.0093677 99.9645923,13.440281 100.25698,13.6826698 C100.575949,13.9250585 101.00124,13.8711944 101.267047,13.5749415 C103.340342,10.9355972 106.423705,9.42740047 109.746293,9.42740047 C115.726953,9.42740047 120.591222,14.3559719 120.591222,20.4156909 C120.591222,24.1592506 118.730573,27.6065574 115.62063,29.6533958 C115.461146,29.7611241 115.354823,29.9227166 115.301661,30.1112412 C115.2485,30.2997658 115.301661,30.4882904 115.407984,30.6498829 C115.514307,30.8114754 115.673791,30.9192037 115.859856,30.9730679 C115.913018,30.9730679 115.966179,31 116.01934,31 C116.152244,31 116.285148,30.9730679 116.39147,30.8922717 C119.900124,28.6030445 122,24.6978923 122,20.469555 C122,17.1030445 120.724126,13.9789227 118.411604,11.6358314 Z" id="Path" fill="#072A3B"></path>
            <path d="M118,19.9864253 C118,15.0180995 113.975831,11 109,11 C104.024169,11 100,15.0180995 100,19.9864253 C100,20.1493213 100,20.3122172 100.02719,20.5022624 C100.054381,20.9095023 100.407855,21.2081448 100.78852,21.1809955 C101.196375,21.1538462 101.495468,20.8280543 101.468278,20.4208145 C101.468278,20.2850679 101.468278,20.1221719 101.468278,19.9864253 C101.468278,15.8325792 104.867069,12.438914 109.02719,12.438914 C113.187311,12.438914 116.586103,15.8325792 116.586103,19.9864253 C116.586103,24.1402715 113.187311,27.5339367 109.02719,27.5339367 C108.646526,27.5339367 108.238671,27.5067873 107.858006,27.4524887 C107.667674,27.4253394 107.477341,27.479638 107.314199,27.5882353 C107.151057,27.6968326 107.042296,27.8597285 107.015106,28.0497738 C106.960725,28.4570136 107.232628,28.8099548 107.613293,28.8914027 C108.075529,28.9728507 108.537764,29 109.02719,29 C113.94864,28.9728507 118,24.9276018 118,19.9864253 Z" id="Path" fill="#072A3B"></path>
            <path d="M115,19.5 C115,16.4626866 112.537313,14 109.5,14 C106.462687,14 104,16.4626866 104,19.5 C104,22.5373134 106.462687,25 109.5,25 C112.537313,25 115,22.5373134 115,19.5 Z M105.450249,19.5 C105.450249,17.2835821 107.256219,15.4502488 109.5,15.4502488 C111.716418,15.4502488 113.549751,17.2562189 113.549751,19.5 C113.549751,21.7164179 111.743781,23.5497512 109.5,23.5497512 C107.256219,23.5223881 105.450249,21.7164179 105.450249,19.5 Z" id="Shape" fill="#072A3B"></path>
            <path d="M110,18 C108.914286,18 108,18.8857143 108,20 C108,21.1142857 108.885714,22 110,22 C111.085714,22 112,21.1142857 112,20 C112,18.8857143 111.085714,18 110,18 Z" id="Path" fill="#EE3324"></path>
            <path d="M134.732448,14.5373291 C134.874763,14.318612 135.13093,14.2092534 135.529412,14.2092534 L137.237192,14.2092534 C139.628083,14.2092534 141.364326,13.7991588 142.417457,12.9789695 C143.470588,12.1587802 144.011385,10.8464774 144.011385,9.06940063 C144.011385,7.67507886 143.555977,6.71819138 142.673624,6.14405889 C141.791271,5.59726604 140.311195,5.29652997 138.290323,5.29652997 C137.607211,5.29652997 136.867173,5.32386961 136.070209,5.40588854 C135.244782,5.48790747 134.56167,5.51524711 133.963947,5.51524711 C133.593928,5.51524711 133.366224,5.43322818 133.223909,5.24185068 C133.081594,5.05047319 133.024668,4.83175605 133.024668,4.55835962 C133.024668,3.98422713 133.451613,3.57413249 134.333966,3.35541535 C135.216319,3.13669821 136.639469,3 138.574953,3 C139.798861,3 140.937381,3.08201893 141.905123,3.27339642 C142.901328,3.46477392 143.755218,3.79284963 144.466793,4.23028391 C145.178368,4.69505783 145.747628,5.29652997 146.117647,6.06203996 C146.516129,6.82754995 146.686907,7.78443743 146.686907,8.96004206 C146.686907,9.88958991 146.573055,10.7097792 146.373814,11.3659306 C146.174573,12.022082 145.86148,12.5962145 145.434535,13.0609884 C145.036053,13.5257624 144.523719,13.9085174 143.954459,14.2092534 C143.385199,14.5099895 142.73055,14.7560463 141.990512,14.9474238 C141.848197,15.0294427 141.791271,15.1114616 141.791271,15.2208202 C141.791271,15.3575184 141.848197,15.4395373 141.990512,15.4395373 C143.58444,15.5762355 144.836812,16.1777077 145.690702,17.2439537 C146.573055,18.2828601 147,19.6498423 147,21.2628812 C147,22.8759201 146.743833,24.1882229 146.259962,25.1724501 C145.747628,26.1840168 145.092979,26.9495268 144.239089,27.5236593 C143.385199,28.0704522 142.388994,28.4532072 141.250474,28.6719243 C140.111954,28.8906414 138.916509,29 137.664137,29 C136.924099,29 136.212524,29 135.529412,28.9726604 C134.8463,28.9453207 134.248577,28.8906414 133.736243,28.7812829 C133.223909,28.6719243 132.796964,28.5352261 132.483871,28.3438486 C132.170778,28.1524711 132,27.8790747 132,27.5509989 C132,27.2502629 132.085389,26.9768665 132.227704,26.7581493 C132.370019,26.5120925 132.626186,26.402734 132.910816,26.402734 C133.451613,26.402734 134.163188,26.4574132 135.017078,26.5667718 C135.870968,26.6761304 136.667932,26.7308097 137.40797,26.7308097 C138.631879,26.7308097 139.656546,26.6487907 140.538899,26.4847529 C141.421252,26.320715 142.132827,26.019979 142.673624,25.6098843 C143.214421,25.1997897 143.641366,24.6529968 143.897533,23.9695058 C144.1537,23.2860147 144.296015,22.4111462 144.296015,21.3449001 C144.296015,19.595163 143.726755,18.3375394 142.588235,17.5993691 C141.449715,16.8611987 139.628083,16.4784437 137.151803,16.4784437 L135.444023,16.4784437 C134.760911,16.4784437 134.447818,16.0956887 134.447818,15.3575184 C134.533207,15.0294427 134.590133,14.7560463 134.732448,14.5373291 Z" id="Path" fill="#EE3324"></path>
            <path d="M162.582456,4.9088017 C161.964912,5.51855779 161.375439,6.15482503 160.757895,6.81760339 C160.140351,7.48038176 159.607018,8.16967126 159.073684,8.85896076 C158.540351,9.54825027 158.035088,10.2640509 157.585965,10.9533404 C157.136842,11.6426299 156.74386,12.3054083 156.435088,12.8886532 C156.350877,13.0212089 156.322807,13.1272534 156.322807,13.2598091 C156.322807,13.4188759 156.435088,13.5249205 156.631579,13.5249205 C156.996491,13.5249205 157.529825,13.4453871 158.231579,13.2863203 C158.933333,13.1272534 159.775439,13.04772 160.757895,13.04772 C162.217544,13.04772 163.396491,13.1802757 164.350877,13.4188759 C165.277193,13.6839873 166.035088,14.0816543 166.568421,14.6383881 C167.101754,15.195122 167.494737,15.9374337 167.691228,16.8388123 C167.887719,17.7401909 168,18.8271474 168,20.126193 C168,21.7433722 167.859649,23.0424178 167.550877,24.0763521 C167.242105,25.0837752 166.764912,25.9056204 166.119298,26.4888653 C165.473684,27.0721103 164.631579,27.4697773 163.621053,27.6818664 C162.610526,27.8939555 161.375439,28 159.915789,28 C158.42807,28 157.192982,27.8674443 156.210526,27.6288441 C155.2,27.3637328 154.385965,26.9660657 153.768421,26.3563097 C153.150877,25.7730647 152.701754,25.0042418 152.421053,24.0233298 C152.140351,23.068929 152,21.8759279 152,20.4973489 C152,19.2248144 152.112281,18.0053022 152.308772,16.8388123 C152.505263,15.6723224 152.898246,14.4528102 153.459649,13.1802757 C154.021053,11.9077413 154.835088,10.5291622 155.901754,9.07104984 C156.968421,7.5864263 158.34386,5.91622481 160.02807,4.00742312 C160.336842,3.66277837 160.617544,3.42417815 160.842105,3.23860021 C161.066667,3.05302227 161.375439,3 161.712281,3 C161.992982,3 162.273684,3.0795334 162.582456,3.26511135 C162.891228,3.45068929 163.031579,3.71580064 163.031579,4.03393425 C163.031579,4.2990456 162.863158,4.59066808 162.582456,4.9088017 Z M164.968421,17.6871686 C164.8,16.9183457 164.491228,16.3616119 164.070175,15.9639449 C163.649123,15.5662778 163.115789,15.3011665 162.442105,15.1686108 C161.768421,15.0360551 160.954386,14.9830329 160,14.9830329 C158.933333,14.9830329 158.063158,15.0625663 157.361404,15.195122 C156.687719,15.3276776 156.126316,15.6193001 155.733333,16.0169671 C155.340351,16.4146341 155.059649,16.9978791 154.919298,17.7401909 C154.778947,18.4825027 154.694737,19.4634146 154.694737,20.6829268 C154.694737,21.8494168 154.778947,22.8038176 154.975439,23.4931071 C155.17193,24.1823966 155.480702,24.7126193 155.901754,25.0837752 C156.322807,25.4549311 156.85614,25.6935313 157.529825,25.7995758 C158.203509,25.9056204 159.017544,25.9586426 159.97193,25.9586426 C160.982456,25.9586426 161.852632,25.9056204 162.526316,25.7995758 C163.2,25.6935313 163.761404,25.4549311 164.154386,25.0837752 C164.547368,24.7126193 164.82807,24.1823966 164.996491,23.4931071 C165.164912,22.8038176 165.249123,21.8494168 165.249123,20.6829268 C165.249123,19.4369035 165.136842,18.4294804 164.968421,17.6871686 Z" id="Shape" fill="#EE3324"></path>
            <path d="M176.621622,7.7657082 C176.594595,8.37806177 176.567568,8.99041534 176.540541,9.62939297 C176.513514,10.2683706 176.486486,10.8807242 176.459459,11.4664537 C176.432432,12.0521832 176.432432,12.5580405 176.432432,12.9307774 C176.432432,13.0372737 176.459459,13.0905218 176.513514,13.14377 C176.567568,13.1970181 176.621622,13.2236422 176.648649,13.2236422 C178.675676,13.2236422 180.351351,13.3567625 181.702703,13.6496273 C183.027027,13.942492 184.108108,14.3684771 184.864865,14.9542066 C185.621622,15.5399361 186.189189,16.2587859 186.513514,17.1373802 C186.837838,18.0159744 187,19.0543131 187,20.2257721 C187,21.7965921 186.783784,23.0745474 186.324324,24.086262 C185.864865,25.0979766 185.243243,25.8700745 184.432432,26.455804 C183.621622,27.0415335 182.648649,27.4408946 181.540541,27.6538871 C180.405405,27.8935037 179.189189,28 177.837838,28 C177.189189,28 176.594595,27.9733759 176,27.9467519 C175.405405,27.9201278 174.891892,27.8402556 174.459459,27.7337593 C174.027027,27.627263 173.675676,27.4675186 173.405405,27.2811502 C173.135135,27.0947817 173,26.828541 173,26.4824281 C173,26.1895634 173.054054,25.9765708 173.162162,25.7902023 C173.27027,25.6304579 173.486486,25.5505857 173.756757,25.5505857 C174.27027,25.5505857 174.891892,25.6038339 175.621622,25.6837061 C176.351351,25.7902023 177.054054,25.8168264 177.756757,25.8168264 C178.864865,25.8168264 179.837838,25.7369542 180.675676,25.5772098 C181.513514,25.4174654 182.216216,25.1246006 182.756757,24.6986155 C183.297297,24.2726305 183.72973,23.713525 184,22.9946752 C184.27027,22.2758253 184.432432,21.343983 184.432432,20.199148 C184.432432,19.2673056 184.297297,18.4685836 184,17.829606 C183.72973,17.1906283 183.27027,16.684771 182.648649,16.3120341 C182.027027,15.9392971 181.189189,15.6730564 180.162162,15.486688 C179.135135,15.3269436 177.864865,15.2204473 176.351351,15.2204473 L175,15.2204473 C174.594595,15.2204473 174.297297,15.113951 174.162162,14.8743344 C174.027027,14.6347178 173.972973,14.315229 173.972973,13.9158679 C173.972973,13.4100106 173.972973,12.8242812 174,12.1320554 C174.027027,11.4398296 174.027027,10.7209798 174.054054,9.94888179 C174.081081,9.17678381 174.108108,8.37806177 174.162162,7.55271565 C174.216216,6.72736954 174.27027,5.9286475 174.297297,5.12992545 C174.324324,4.59744409 174.405405,4.19808307 174.513514,3.90521832 C174.648649,3.61235357 174.810811,3.39936102 175.054054,3.26624068 C175.297297,3.13312034 175.621622,3.05324814 176.027027,3.02662407 C176.432432,3 176.945946,3 177.594595,3 L185.378378,3 C185.72973,3 185.945946,3.10649627 186.081081,3.31948882 C186.216216,3.53248136 186.27027,3.82534611 186.27027,4.14483493 C186.27027,4.49094782 186.189189,4.7571885 186.081081,4.94355698 C185.945946,5.12992545 185.702703,5.23642173 185.378378,5.23642173 L177.702703,5.23642173 C177.324324,5.23642173 177.054054,5.28966986 176.945946,5.36954207 C176.837838,5.47603834 176.756757,5.71565495 176.702703,6.14164004 C176.675676,6.64749734 176.648649,7.15335463 176.621622,7.7657082 Z" id="Path" fill="#EE3324"></path>
        </g>
    </g>
</svg>